<?xml version="1.0" encoding="UTF-8" standalone="no"?>
<!-- Generator: Adobe Illustrator 18.0.0, SVG Export Plug-In . SVG Version: 6.00 Build 0)  -->

<svg
   xmlns:dc="http://purl.org/dc/elements/1.1/"
   xmlns:cc="http://creativecommons.org/ns#"
   xmlns:rdf="http://www.w3.org/1999/02/22-rdf-syntax-ns#"
   xmlns:svg="http://www.w3.org/2000/svg"
   xmlns="http://www.w3.org/2000/svg"
   xmlns:sodipodi="http://sodipodi.sourceforge.net/DTD/sodipodi-0.dtd"
   xmlns:inkscape="http://www.inkscape.org/namespaces/inkscape"
   version="1.1"
   id="Слой_1"
   x="0px"
   y="0px"
   viewBox="123 -34 640 479.99998"
   enable-background="new 123 -34 773 836.9"
   xml:space="preserve"
   inkscape:version="0.91 r13725"
   sodipodi:docname="logo.svg"
   width="640"
   height="480"
   inkscape:export-filename="/home/epoulsen/workspaces/sturdy-sting/logo/logo.png"
   inkscape:export-xdpi="45"
   inkscape:export-ydpi="45"><metadata
     id="metadata3194"><rdf:RDF><cc:Work
         rdf:about=""><dc:format>image/svg+xml</dc:format><dc:type
           rdf:resource="http://purl.org/dc/dcmitype/StillImage" /><dc:title></dc:title></cc:Work></rdf:RDF></metadata><defs
     id="defs3192" /><sodipodi:namedview
     pagecolor="#818181"
     bordercolor="#666666"
     borderopacity="1"
     objecttolerance="10"
     gridtolerance="10"
     guidetolerance="10"
     inkscape:pageopacity="0"
     inkscape:pageshadow="2"
     inkscape:window-width="1920"
     inkscape:window-height="1028"
     id="namedview3190"
     showgrid="false"
     units="px"
     inkscape:zoom="1.0246428"
     inkscape:cx="484.19181"
     inkscape:cy="191.21616"
     inkscape:window-x="0"
     inkscape:window-y="24"
     inkscape:window-maximized="0"
     inkscape:current-layer="Слой_1" /><path
     d="m 549.94668,97.535068 c -1.58719,-6.8656 -22.6637,-16.0935 -22.6637,-16.0935 -0.51676,-1.8456 -5.01997,-3.4328 -5.01997,-3.4328 22.95899,-16.6102 6.86555,-21.3718 6.86555,-21.3718 35.06599,-12.6606 53.74324,-71.9775 53.74324,-71.9775 -5.31526,-31.9285 -66.92067,21.3718008 -66.92067,21.3718008 -6.34879,8.6742002 -96.26538,77.7726992 -96.26538,77.7726992 -2.10395,-0.2584 -3.17439,2.3623 -3.17439,2.3623 -2.10396,-2.104 -7.12393,-3.0637 -7.12393,-3.0637 -3.87572,-0.074 -7.52996,0.2215 -10.92583,0.8121 -1.07043,-1.8456 -2.5469,-3.9126 -3.8388,-4.0603 0,0 -32.44527,-37.4652 -43.51874,-53.005 0,0 -22.40532,-30.3412996 -43.51874,-21.1133992 0,0 -15.02301,25.3212992 9.74465,45.6226992 0,0 -21.3718,2.6207 4.20792,20.043 0,0 11.07347,5.0199 25.57972,3.9495 0,0 13.43581,4.2079 26.35486,5.5367 l 10.55671,5.7952 c 0,0 0.55367,0.4798 1.47646,1.1073 -17.82829,7.8622 -26.24413,22.885202 -26.24413,22.885202 -7.52996,-1.2919 -13.28816,3.5066 -17.20079,8.7849 -1.25499,-6.0535 3.72807,-13.2512 3.72807,-13.2512 5.53674,-3.9496 4.4663,-6.0535 4.4663,-6.0535 l 7.89908,-7.234702 c 3.69115,-6.7179 -2.36234,-3.8388 -2.36234,-3.8388 l -9.96613,7.6407 c -9.74465,-2.6207 -10.70435,24.509302 -10.70435,24.509302 -0.40603,4.3925 0.18456,7.1608 1.10735,8.8957 -0.2953,0.7013 -0.40603,1.1073 -0.40603,1.1073 -0.77514,4.6878 -0.84897,8.9695 -0.47985,12.8083 -2.80528,0.2215 -7.49305,0.7752 -6.90247,2.2516 0,0 -12.1439,10.0031 -10.00303,14.5063 0,0 -6.0535,15.2814 -2.62072,18.7142 0,0 2.62072,0 3.69115,-6.3488 l 3.69116,-11.4795 c 0,0 3.8388,-5.6475 6.31188,-11.4795 0,0 2.73146,1.4764 6.53335,-1.6241 0.14764,0.7382 0.29529,1.4395 0.47985,2.1408 -0.47985,3.9127 -1.32882,10.6306 -1.51338,12.6607 l -5.09379,7.9729 c 0,0 -10.55671,23.5865 -6.31188,25.063 0,0 -4.4663,7.5668 -3.91263,9.5231 0,0 -7.08702,8.5266 -4.02336,9.8185 0,0 0.70132,7.3454 4.76159,6.4596 0,0 -1.03352,-0.9967 -1.40264,-2.8422 l 1.66102,-1.2919 c 0,0 3.1744,1.2919 2.58381,2.7683 0,0 1.73485,-3.3589 -2.73145,-6.5333 0,0 0.47985,-3.2482 3.02675,-4.614 0,0 4.24483,-2.6576 3.61733,-12.3284 0,0 1.95631,-0.6275 5.16762,-18.1236 0,0 5.27835,-11.2581 5.27835,-13.6573 0,0 1.10735,-2.916 1.84558,-6.6072 3.1744,6.4596 6.86556,9.7816 6.86556,9.7816 l 2.10395,3.1744 c 2.91602,1.3288 7.89908,10.2983 7.89908,10.2983 10.29833,13.1775 17.93902,8.9695 17.93902,8.9695 -3.17439,-0.7751 -4.76159,-5.7951 -4.76159,-5.7951 l 5.79512,3.6912 c 1.2919,-1.0705 0.29529,-7.3823 0.29529,-7.3823 -1.32882,-8.4528 2.36234,-20.8182 2.36234,-20.8182 l 2.32543,0.7752 c 0.14765,7.6038 0.73823,18.1236 3.61733,17.9759 0,0 -1.36572,8.7111 -0.11073,10.2983 0,0 -3.32204,10.5936 0,10.5936 0,0 3.54351,6.5334 6.97629,4.1711 0,0 -1.255,-0.5168 -2.32543,-2.104 l 1.07043,-1.8456 c 0,0 3.43278,0 3.43278,1.5872 0,0 0.3322,-3.765 -5.01998,-5.0199 0,0 -0.77514,-3.2114 1.07044,-5.426 0,0 2.91601,-4.0603 -1.32882,-12.7715 0,0 1.36573,-1.1442 -1.43955,-15.5028 l 0.66441,0.2215 c 26.35486,7.1239 22.959,-8.7481 22.959,-8.7481 12.1439,2.916 16.09344,-4.4294 16.09344,-4.4294 1.14426,-0.7751 2.62072,-0.8858 4.02336,-0.7013 -2.43616,8.2682 -7.41922,26.4287 -4.57703,28.6434 0,0 -2.2147,8.9695 -0.84897,9.2279 0,0 -6.79173,11.0734 -4.94615,11.5902 0,0 -4.20792,7.3823 -3.69116,8.1575 0,0 -3.17439,5.2783 2.91602,3.9495 0,0 4.20792,0.2584 5.53673,2.6207 0,0 -1.84557,-5.5367 -3.69115,-6.0535 l 2.47307,-7.1239 c 0,0 3.83881,-2.6207 4.90924,-14.2479 0,0 3.1744,-0.5167 3.1744,-8.7111 0,0 -0.88588,-18.1605 1.14425,-27.5729 1.32882,0.4429 2.28852,0.9227 2.28852,0.9227 7.12393,4.4663 8.71113,2.104 8.71113,2.104 3.46969,7.6776 7.89908,2.0671 10.03995,-1.5134 2.14087,5.0569 5.49982,11.4795 9.22789,12.8453 -0.70132,9.8553 -4.35556,24.0663 -4.35556,24.0663 -1.66102,8.0098 1.32881,9.1541 1.32881,9.1541 -1.32881,11.5902 1.9194,14.9492 1.9194,14.9492 l 0.99662,7.493 c -1.9194,0.1477 -4.83542,5.2045 -4.83542,5.2045 1.77176,-2.067 5.94276,-1.4764 5.94276,-1.4764 5.68439,2.51 3.65425,-3.2852 3.65425,-3.2852 0.66441,-0.6644 -1.95631,-8.748 -1.95631,-8.748 1.9194,-0.1476 -2.50999,-12.3654 -2.50999,-12.3654 1.40264,0.037 1.03352,-9.2279 1.03352,-9.2279 2.65764,-1.3288 2.32543,-14.1371 1.73485,-23.4388 2.36234,2.3623 7.45613,5.9058 16.79476,5.9058 0,0 5.01998,3.9496 7.89908,2.6208 0,0 8.15745,2.916 10.55671,23.2173 0,0 4.87232,20.043 13.80492,20.043 6.23806,8.0836 14.80154,19.6739 19.1202,31.707 3.13748,7.5669 6.27496,6.8287 6.27496,6.8287 5.426,10.2983 10.00304,11.258 10.00304,11.258 l 5.01997,5.6106 c -1.51337,1.1811 -1.07043,7.0132 -1.07043,7.0132 0.29529,-2.6946 4.09718,-4.577 4.09718,-4.577 6.09041,-1.1074 1.14426,-4.7616 1.14426,-4.7616 0.18456,-0.9228 -6.53335,-6.1274 -6.53335,-6.1274 1.51338,-1.1811 -9.00642,-8.8218 -9.00642,-8.8218 1.18117,-0.7752 -4.31865,-8.1944 -4.31865,-8.1944 2.28851,-4.0972 -18.93564,-32.8513 -18.93564,-32.8513 0,0 -0.0369,-0.037 -0.11073,-0.1107 0.9597,-2.6946 -0.47986,-7.9729 -10.40907,-18.3451 0,0 -3.43277,-5.6844 -6.64408,-15.2814 0,0 -1.07044,-6.7548 -8.48966,-8.6004 0,0 1.10735,-5.0938 -11.55332,-9.5601 0,0 -13.21434,-10.2983 -17.12697,-9.7815 l -7.08702,-8.2682 0.47985,-0.406 c 0.70132,-0.8859 1.18117,-1.7349 1.51337,-2.5469 6.27497,3.5066 25.39516,13.6941 29.3447,9.9292 0,0 20.15372,7.087 31.48557,6.7179 7.23467,3.765 15.20757,7.493 15.20757,7.493 0.77514,4.4663 5.01997,6.5703 5.01997,6.5703 10.00304,4.2079 9.22789,15.3183 9.22789,15.3183 l 2.91602,-5.02 c 10.29832,-8.7111 13.7311,-25.5797 13.7311,-25.5797 l 2.10396,-7.3823 c 5.27835,-7.8991 -5.01997,-26.6502 -5.01997,-26.6502 -0.0738,-12.4761 -15.09684,-26.982302 -15.09684,-26.982302 z m -169.57175,-15.5767 -14.80154,-8.7481 c -1.21808,-0.5536 -2.14087,-1.0704 -2.62072,-1.5502 l 2.62072,1.5502 c 6.42262,2.9161 21.11342,6.6441 21.11342,6.6441 l 5.72129,5.4629 -5.05688,0.9228 -6.97629,-4.2817 z m 55.40427,15.5767 -4.57704,-3.0637 0,-1.6979 4.57704,-1.4396 0,6.2012 z m 0,-10.1876 -6.0535,3.6911 c -3.69116,-0.5906 -5.01997,0.4061 -5.01997,0.4061 l -2.10396,-2.2147 c 1.07043,-2.3624 14.0264,-10.1138 14.0264,-10.1138 l 2.50998,0 -3.35895,8.2313 z m 54.85059,63.377102 c 0,0 -3.94954,-4.4293 -9.74465,-5.2045 l -20.44901,-8.4158 c -0.33221,-0.5537 -0.6275,-0.849 -0.6275,-0.849 -3.94954,-1.8456 -2.62072,-5.7951 -2.62072,-5.7951 4.4663,-7.8991 10.55671,-1.3288 10.55671,-1.3288 9.22789,11.0365 29.27087,16.9055 29.27087,16.9055 l 13.98949,7.1239 c 0.29529,0.2584 0.70132,0.5906 1.21808,0.9597 -5.35218,0.037 -12.66067,-0.6644 -21.59327,-3.3959 z"
     id="path3188"
     inkscape:connector-curvature="0"
     style="fill:#ffff00;fill-opacity:1;stroke:#606060;stroke-width:4.1;stroke-miterlimit:4;stroke-dasharray:none;stroke-opacity:1" /><flowRoot
     xml:space="preserve"
     id="flowRoot3251"
     style="font-style:normal;font-variant:normal;font-weight:normal;font-stretch:normal;font-size:20px;line-height:125%;font-family:'Bitstream Vera Sans Mono';-inkscape-font-specification:'Bitstream Vera Sans Mono';letter-spacing:0px;word-spacing:0px;fill:#ffffff;fill-opacity:1;stroke:none;stroke-width:1px;stroke-linecap:butt;stroke-linejoin:miter;stroke-opacity:1;"
     transform="translate(-174.46777,75.476137)"><flowRegion
       id="flowRegion3253"><rect
         id="rect3255"
         width="611.31152"
         height="271.52124"
         x="313.30576"
         y="105.26368"
         style="font-style:normal;font-variant:normal;font-weight:normal;font-stretch:normal;font-size:20px;font-family:'Bitstream Vera Sans Mono';-inkscape-font-specification:'Bitstream Vera Sans Mono';fill:#ffffff;fill-opacity:1;" /></flowRegion><flowPara
       id="flowPara3257"
       style="font-style:normal;font-variant:normal;font-weight:normal;font-stretch:normal;font-size:180px;font-family:sans-serif;-inkscape-font-specification:sans-serif;text-align:center;text-anchor:middle;fill:#ffffff;fill-opacity:1;">STING</flowPara><flowPara
       style="font-style:normal;font-variant:normal;font-weight:normal;font-stretch:normal;font-size:25px;font-family:sans-serif;-inkscape-font-specification:sans-serif;text-align:center;text-anchor:middle;fill:#ffffff;fill-opacity:1;"
       id="flowPara3259">Sturdy Tactical Integrated Nerf Gun</flowPara></flowRoot><flowRoot
     xml:space="preserve"
     id="flowRoot3265"
     style="font-style:normal;font-weight:normal;font-size:40px;line-height:125%;font-family:sans-serif;letter-spacing:0px;word-spacing:0px;fill:#000000;fill-opacity:1;stroke:none;stroke-width:1px;stroke-linecap:butt;stroke-linejoin:miter;stroke-opacity:1"
     transform="translate(128.8557,147.52666)"><flowRegion
       id="flowRegion3267"><rect
         id="rect3269"
         width="1161.3804"
         height="575.81042"
         x="-156.15198"
         y="-304.66367" /></flowRegion><flowPara
       id="flowPara3271" /></flowRoot></svg>