<?xml version="1.0" encoding="utf-8"?>
<!-- Generator: Adobe Illustrator 18.0.0, SVG Export Plug-In . SVG Version: 6.00 Build 0)  -->
<!DOCTYPE svg PUBLIC "-//W3C//DTD SVG 1.1//EN" "http://www.w3.org/Graphics/SVG/1.1/DTD/svg11.dtd">
<svg version="1.1" id="Слой_1" xmlns="http://www.w3.org/2000/svg" xmlns:xlink="http://www.w3.org/1999/xlink" x="0px" y="0px"
	 viewBox="123 -34 773 836.9" enable-background="new 123 -34 773 836.9" xml:space="preserve">
<path fill="#808080"      d="
	M797.1,305.2c-4.3-18.6-61.4-43.6-61.4-43.6c-1.4-5-13.6-9.3-13.6-9.3c62.2-45,18.6-57.9,18.6-57.9c95-34.3,145.6-195,145.6-195
	C871.9-87.1,705,57.3,705,57.3C687.8,80.8,444.2,268,444.2,268c-5.7-0.7-8.6,6.4-8.6,6.4c-5.7-5.7-19.3-8.3-19.3-8.3
	c-10.5-0.2-20.4,0.6-29.6,2.2c-2.9-5-6.9-10.6-10.4-11c0,0-87.9-101.5-117.9-143.6c0,0-60.7-82.2-117.9-57.2
	c0,0-40.7,68.6,26.4,123.6c0,0-57.9,7.1,11.4,54.3c0,0,30,13.6,69.3,10.7c0,0,36.4,11.4,71.4,15l28.6,15.7c0,0,1.5,1.3,4,3
	c-48.3,21.3-71.1,62-71.1,62c-20.4-3.5-36,9.5-46.6,23.8c-3.4-16.4,10.1-35.9,10.1-35.9c15-10.7,12.1-16.4,12.1-16.4l21.4-19.6
	c10-18.2-6.4-10.4-6.4-10.4L244.1,303c-26.4-7.1-29,66.4-29,66.4c-1.1,11.9,0.5,19.4,3,24.1c-0.8,1.9-1.1,3-1.1,3
	c-2.1,12.7-2.3,24.3-1.3,34.7c-7.6,0.6-20.3,2.1-18.7,6.1c0,0-32.9,27.1-27.1,39.3c0,0-16.4,41.4-7.1,50.7c0,0,7.1,0,10-17.2
	l10-31.1c0,0,10.4-15.3,17.1-31.1c0,0,7.4,4,17.7-4.4c0.4,2,0.8,3.9,1.3,5.8c-1.3,10.6-3.6,28.8-4.1,34.3L201,505.2
	c0,0-28.6,63.9-17.1,67.9c0,0-12.1,20.5-10.6,25.8c0,0-19.2,23.1-10.9,26.6c0,0,1.9,19.9,12.9,17.5c0,0-2.8-2.7-3.8-7.7l4.5-3.5
	c0,0,8.6,3.5,7,7.5c0,0,4.7-9.1-7.4-17.7c0,0,1.3-8.8,8.2-12.5c0,0,11.5-7.2,9.8-33.4c0,0,5.3-1.7,14-49.1c0,0,14.3-30.5,14.3-37
	c0,0,3-7.9,5-17.9c8.6,17.5,18.6,26.5,18.6,26.5l5.7,8.6c7.9,3.6,21.4,27.9,21.4,27.9c27.9,35.7,48.6,24.3,48.6,24.3
	c-8.6-2.1-12.9-15.7-12.9-15.7l15.7,10c3.5-2.9,0.8-20,0.8-20c-3.6-22.9,6.4-56.4,6.4-56.4l6.3,2.1c0.4,20.6,2,49.1,9.8,48.7
	c0,0-3.7,23.6-0.3,27.9c0,0-9,28.7,0,28.7c0,0,9.6,17.7,18.9,11.3c0,0-3.4-1.4-6.3-5.7l2.9-5c0,0,9.3,0,9.3,4.3
	c0,0,0.9-10.2-13.6-13.6c0,0-2.1-8.7,2.9-14.7c0,0,7.9-11-3.6-34.6c0,0,3.7-3.1-3.9-42l1.8,0.6c71.4,19.3,62.2-23.7,62.2-23.7
	c32.9,7.9,43.6-12,43.6-12c3.1-2.1,7.1-2.4,10.9-1.9c-6.6,22.4-20.1,71.6-12.4,77.6c0,0-6,24.3-2.3,25c0,0-18.4,30-13.4,31.4
	c0,0-11.4,20-10,22.1c0,0-8.6,14.3,7.9,10.7c0,0,11.4,0.7,15,7.1c0,0-5-15-10-16.4l6.7-19.3c0,0,10.4-7.1,13.3-38.6
	c0,0,8.6-1.4,8.6-23.6c0,0-2.4-49.2,3.1-74.7c3.6,1.2,6.2,2.5,6.2,2.5c19.3,12.1,23.6,5.7,23.6,5.7c9.4,20.8,21.4,5.6,27.2-4.1
	c5.8,13.7,14.9,31.1,25,34.8c-1.9,26.7-11.8,65.2-11.8,65.2c-4.5,21.7,3.6,24.8,3.6,24.8c-3.6,31.4,5.2,40.5,5.2,40.5l2.7,20.3
	c-5.2,0.4-13.1,14.1-13.1,14.1c4.8-5.6,16.1-4,16.1-4c15.4,6.8,9.9-8.9,9.9-8.9c1.8-1.8-5.3-23.7-5.3-23.7
	c5.2-0.4-6.8-33.5-6.8-33.5c3.8,0.1,2.8-25,2.8-25c7.2-3.6,6.3-38.3,4.7-63.5c6.4,6.4,20.2,16,45.5,16c0,0,13.6,10.7,21.4,7.1
	c0,0,22.1,7.9,28.6,62.9c0,0,13.2,54.3,37.4,54.3c16.9,21.9,40.1,53.3,51.8,85.9c8.5,20.5,17,18.5,17,18.5
	c14.7,27.9,27.1,30.5,27.1,30.5l13.6,15.2c-4.1,3.2-2.9,19-2.9,19c0.8-7.3,11.1-12.4,11.1-12.4c16.5-3,3.1-12.9,3.1-12.9
	c0.5-2.5-17.7-16.6-17.7-16.6c4.1-3.2-24.4-23.9-24.4-23.9c3.2-2.1-11.7-22.2-11.7-22.2c6.2-11.1-51.3-89-51.3-89s-0.1-0.1-0.3-0.3
	c2.6-7.3-1.3-21.6-28.2-49.7c0,0-9.3-15.4-18-41.4c0,0-2.9-18.3-23-23.3c0,0,3-13.8-31.3-25.9c0,0-35.8-27.9-46.4-26.5l-19.2-22.4
	l1.3-1.1c1.9-2.4,3.2-4.7,4.1-6.9c17,9.5,68.8,37.1,79.5,26.9c0,0,54.6,19.2,85.3,18.2c19.6,10.2,41.2,20.3,41.2,20.3
	c2.1,12.1,13.6,17.8,13.6,17.8c27.1,11.4,25,41.5,25,41.5l7.9-13.6c27.9-23.6,37.2-69.3,37.2-69.3l5.7-20
	c14.3-21.4-13.6-72.2-13.6-72.2C837.8,344.5,797.1,305.2,797.1,305.2z M337.7,263l-40.1-23.7c-3.3-1.5-5.8-2.9-7.1-4.2l7.1,4.2
	c17.4,7.9,57.2,18,57.2,18l15.5,14.8l-13.7,2.5L337.7,263z M487.8,305.2l-12.4-8.3v-4.6l12.4-3.9V305.2z M487.8,277.6l-16.4,10
	c-10-1.6-13.6,1.1-13.6,1.1l-5.7-6c2.9-6.4,38-27.4,38-27.4h6.8L487.8,277.6z M636.4,449.3c0,0-10.7-12-26.4-14.1l-55.4-22.8
	c-0.9-1.5-1.7-2.3-1.7-2.3c-10.7-5-7.1-15.7-7.1-15.7c12.1-21.4,28.6-3.6,28.6-3.6c25,29.9,79.3,45.8,79.3,45.8l37.9,19.3
	c0.8,0.7,1.9,1.6,3.3,2.6C680.4,458.6,660.6,456.7,636.4,449.3z"/>
</svg>
